<?xml version="1.0" encoding="utf-8"?>
<!-- Generator: Adobe Illustrator 23.0.1, SVG Export Plug-In . SVG Version: 6.00 Build 0)  -->
<svg version="1.1" id="レイヤー_1" xmlns="http://www.w3.org/2000/svg" xmlns:xlink="http://www.w3.org/1999/xlink" x="0px"
	 y="0px" viewBox="0 0 136.6 28.4" style="enable-background:new 0 0 136.6 28.4;" xml:space="preserve">
<style type="text/css">
	.st0{display:none;}
	.st1{display:inline;}
	.st2{fill:#040000;}
	.st3{fill:#FFFFFF;}
	.st4{fill:#E7322D;}
</style>
<g class="st0">
	<g class="st1">
		<path class="st2" d="M74.7,7.3l-3.3,3.3c-0.4,0.4-1.2,0.4-1.6,0l-3.3-3.3c-0.4-0.4-0.4-1.2,0-1.6l3.3-3.3c0.4-0.4,1.2-0.4,1.6,0
			l3.3,3.3C75.2,6.1,75.2,6.8,74.7,7.3z"/>
		<path class="st2" d="M32.5,12.3h4.1v14.8H33l-0.5-2c-0.2,0.3-0.4,0.6-0.7,0.9c-0.3,0.3-0.6,0.5-1,0.8c-0.4,0.2-0.8,0.4-1.2,0.6
			c-0.5,0.1-0.9,0.2-1.4,0.2c-1.7,0-3-0.5-4-1.5c-0.9-1-1.4-2.4-1.4-4.4v-9.4h4.1v9.2c0,1,0.2,1.7,0.6,2.1s1,0.6,1.8,0.6
			c0.7,0,1.3-0.2,1.9-0.6c0.5-0.4,1-0.9,1.5-1.4L32.5,12.3L32.5,12.3z"/>
		<path class="st2" d="M38.7,19.6c0-1.1,0.2-2.1,0.5-3.1s0.8-1.8,1.4-2.5c0.6-0.7,1.4-1.3,2.4-1.7s2.1-0.6,3.4-0.6
			c1.3,0,2.4,0.2,3.4,0.6c1,0.4,1.8,1,2.4,1.7c0.6,0.7,1.1,1.5,1.4,2.5s0.5,2,0.5,3.1c0,1.1-0.2,2.1-0.5,3.1s-0.8,1.8-1.4,2.5
			c-0.6,0.7-1.4,1.3-2.4,1.7c-1,0.4-2.1,0.6-3.4,0.6c-1.3,0-2.4-0.2-3.4-0.6s-1.8-1-2.4-1.7c-0.6-0.7-1.1-1.5-1.4-2.5
			S38.7,20.7,38.7,19.6z M42.8,19.6c0,1.5,0.3,2.7,0.9,3.5c0.6,0.9,1.5,1.3,2.7,1.3c1.2,0,2.2-0.4,2.7-1.3c0.6-0.9,0.9-2,0.9-3.5
			s-0.3-2.7-0.9-3.5c-0.6-0.9-1.5-1.3-2.7-1.3c-1.2,0-2.2,0.4-2.7,1.3C43.1,16.9,42.8,18.1,42.8,19.6z"/>
		<path class="st2" d="M60.3,14.6c0.2-0.3,0.4-0.7,0.6-1s0.5-0.6,0.8-0.8s0.6-0.4,1-0.6c0.4-0.1,0.8-0.2,1.3-0.2
			c0.5,0,0.9,0.1,1.3,0.2s0.7,0.4,1,0.6l-0.9,3.7c-0.6-0.5-1.3-0.7-2.1-0.7c-0.6,0-1.1,0.1-1.7,0.4c-0.5,0.3-1,0.7-1.3,1.3v9.7h-4.1
			V12.3h3.6L60.3,14.6z"/>
		<path class="st3" d="M70.6,5.3c0.4,0,0.7,0.1,0.9,0.3s0.3,0.5,0.3,0.8c0,0.3-0.1,0.6-0.3,0.8S71,7.7,70.6,7.7s-0.7-0.1-0.9-0.3
			s-0.3-0.5-0.3-0.8c0-0.3,0.1-0.6,0.3-0.8C69.9,5.4,70.2,5.3,70.6,5.3z"/>
		<rect x="68.6" y="12.3" class="st2" width="4.1" height="14.8"/>
		<path class="st2" d="M90.9,27.1H87l-0.5-2c-0.5,0.6-1.1,1.2-1.8,1.7s-1.7,0.7-2.8,0.7c-1,0-1.9-0.2-2.7-0.5
			c-0.8-0.4-1.6-0.9-2.2-1.6c-0.6-0.7-1.1-1.6-1.5-2.6S75,20.6,75,19.4c0-1.1,0.2-2.1,0.4-3.1s0.7-1.8,1.3-2.6s1.3-1.3,2.1-1.8
			c0.8-0.4,1.8-0.6,2.9-0.6c1.2,0,2.2,0.2,2.9,0.8c0.8,0.5,1.3,1.1,1.8,1.6V0.9h4.3L90.9,27.1L90.9,27.1z M86.6,16.6
			c-0.4-0.6-0.9-1.1-1.4-1.4s-1.2-0.6-2.1-0.6c-1,0-1.9,0.4-2.6,1.2c-0.7,0.8-1.1,2-1.1,3.5c0,0.9,0.1,1.6,0.3,2.3
			c0.2,0.6,0.5,1.1,0.8,1.5c0.3,0.4,0.7,0.7,1.2,0.9c0.4,0.2,0.9,0.3,1.4,0.3c1,0,1.9-0.4,2.6-1.2s1-1.9,1-3.2L86.6,16.6L86.6,16.6z
			"/>
		<path class="st2" d="M92.7,19.6c0-1.1,0.2-2.1,0.5-3.1s0.8-1.8,1.4-2.5c0.6-0.7,1.4-1.3,2.4-1.7s2.1-0.6,3.4-0.6s2.4,0.2,3.4,0.6
			c1,0.4,1.8,1,2.4,1.7c0.6,0.7,1.1,1.5,1.4,2.5s0.5,2,0.5,3.1c0,1.1-0.2,2.1-0.5,3.1s-0.8,1.8-1.4,2.5c-0.6,0.7-1.4,1.3-2.4,1.7
			c-1,0.4-2.1,0.6-3.4,0.6s-2.4-0.2-3.4-0.6s-1.8-1-2.4-1.7c-0.6-0.7-1.1-1.5-1.4-2.5S92.7,20.7,92.7,19.6z M96.8,19.6
			c0,1.5,0.3,2.7,0.9,3.5c0.6,0.9,1.5,1.3,2.7,1.3c1.2,0,2.2-0.4,2.7-1.3c0.6-0.9,0.9-2,0.9-3.5s-0.3-2.7-0.9-3.5
			c-0.6-0.9-1.5-1.3-2.7-1.3c-1.2,0-2.2,0.4-2.7,1.3C97.1,16.9,96.8,18.1,96.8,19.6z"/>
		<path class="st2" d="M114.1,14.6c0.2-0.3,0.4-0.7,0.6-1c0.2-0.3,0.5-0.6,0.8-0.8c0.3-0.2,0.6-0.4,1-0.6c0.4-0.1,0.8-0.2,1.3-0.2
			c0.4,0,0.9,0.1,1.3,0.2s0.7,0.4,1,0.6l-0.9,3.7c-0.6-0.5-1.3-0.7-2.1-0.7c-0.6,0-1.1,0.1-1.7,0.4c-0.5,0.3-1,0.7-1.3,1.3v9.7H110
			V12.3h3.6L114.1,14.6z"/>
		<path class="st2" d="M125.8,27.1h-4.1V12.3h3.6l0.4,2c0.2-0.2,0.5-0.5,0.9-0.8c0.3-0.3,0.7-0.6,1.2-0.8c0.4-0.2,0.9-0.4,1.4-0.6
			c0.5-0.1,1.1-0.2,1.6-0.2c1.5,0,2.7,0.5,3.6,1.6s1.4,2.6,1.4,4.5v9.1h-4.1v-9c0-1-0.2-1.7-0.5-2.2c-0.3-0.5-0.9-0.8-1.7-0.8
			c-0.7,0-1.4,0.2-2.1,0.6c-0.7,0.4-1.2,0.9-1.6,1.4C125.7,17.2,125.7,27.1,125.8,27.1z"/>
		<g>
			<path class="st2" d="M20.2,7.6C19.8,6.2,19.2,5,18.3,4s-1.9-1.8-3.1-2.3s-2.7-0.8-4.4-0.8S7.7,1.1,6.5,1.7C5.2,2.3,4.2,3,3.3,4
				S1.8,6.2,1.4,7.6C1,8.9,0.8,10.4,0.8,12c0,0.1,0,0.1,0,0.2c0,1.4,0.2,2.8,0.5,4c0.4,1.3,0.9,2.4,1.7,3.4c0.7,1,1.7,1.8,2.8,2.4
				c0.6,0.3,1.2,0.6,1.8,0.7l0,0c0.3,0.1,0.6,0.1,0.9,0.2c0,0,0.1,0,0.1,0c0,0.5-0.1,1.1-0.1,1.8h2.3h2.3c0-0.7,0-1.3-0.1-1.8
				c0.2,0,0.4-0.1,0.6-0.1c0,0,0,0,0,0c1.2-0.3,2.2-0.8,3.1-1.4c0.9-0.7,1.7-1.5,2.3-2.4c0.6-0.9,1.1-2,1.4-3.2
				c0.3-1.2,0.5-2.4,0.5-3.8C20.9,10.4,20.7,8.9,20.2,7.6z M15.2,17.7c-0.7,0.9-1.5,1.5-2.6,1.8c-0.5-1.7-1.1-1.9-1.1-2.5
				c0-0.6,0.4-1,0.5-1.1c0.3-0.3,0.6-0.8,0.6-1.3c0-1-0.8-1.8-1.8-1.8s-1.8,0.8-1.8,1.8c0,0.5,0.2,0.9,0.6,1.3
				c0.1,0.1,0.5,0.5,0.5,1.1c0,0.6-0.6,0.8-1.1,2.5c-1.1-0.3-1.9-0.9-2.6-1.8c-1-1.4-1.5-3.3-1.5-5.7c0-2.4,0.5-4.3,1.5-5.7
				s2.5-2,4.4-2s3.4,0.7,4.4,2s1.5,3.3,1.5,5.7S16.2,16.3,15.2,17.7z"/>
			<rect x="5" y="24.7" class="st2" width="11.7" height="3.1"/>
		</g>
	</g>
</g>
<g>
	<g>
		<path class="st4" d="M74.7,7.3l-3.3,3.3c-0.4,0.4-1.2,0.4-1.6,0l-3.3-3.3c-0.4-0.4-0.4-1.2,0-1.6l3.3-3.3c0.4-0.4,1.2-0.4,1.6,0
			l3.3,3.3C75.2,6.1,75.2,6.8,74.7,7.3z"/>
		<path class="st2" d="M32.5,12.3h4.1v14.8H33l-0.5-2c-0.2,0.3-0.4,0.6-0.7,0.9c-0.3,0.3-0.6,0.5-1,0.8c-0.4,0.2-0.8,0.4-1.2,0.6
			c-0.5,0.1-0.9,0.2-1.4,0.2c-1.7,0-3-0.5-4-1.5c-0.9-1-1.4-2.4-1.4-4.4v-9.4h4.1v9.2c0,1,0.2,1.7,0.6,2.1s1,0.6,1.8,0.6
			c0.7,0,1.3-0.2,1.9-0.6c0.5-0.4,1-0.9,1.5-1.4L32.5,12.3L32.5,12.3z"/>
		<path class="st2" d="M38.7,19.6c0-1.1,0.2-2.1,0.5-3.1s0.8-1.8,1.4-2.5c0.6-0.7,1.4-1.3,2.4-1.7s2.1-0.6,3.4-0.6
			c1.3,0,2.4,0.2,3.4,0.6c1,0.4,1.8,1,2.4,1.7c0.6,0.7,1.1,1.5,1.4,2.5s0.5,2,0.5,3.1c0,1.1-0.2,2.1-0.5,3.1s-0.8,1.8-1.4,2.5
			c-0.6,0.7-1.4,1.3-2.4,1.7c-1,0.4-2.1,0.6-3.4,0.6c-1.3,0-2.4-0.2-3.4-0.6s-1.8-1-2.4-1.7c-0.6-0.7-1.1-1.5-1.4-2.5
			S38.7,20.7,38.7,19.6z M42.8,19.6c0,1.5,0.3,2.7,0.9,3.5c0.6,0.9,1.5,1.3,2.7,1.3c1.2,0,2.2-0.4,2.7-1.3c0.6-0.9,0.9-2,0.9-3.5
			s-0.3-2.7-0.9-3.5c-0.6-0.9-1.5-1.3-2.7-1.3c-1.2,0-2.2,0.4-2.7,1.3C43.1,16.9,42.8,18.1,42.8,19.6z"/>
		<path class="st2" d="M60.3,14.5c0.2-0.3,0.4-0.7,0.6-1s0.5-0.6,0.8-0.8s0.6-0.4,1-0.6c0.4-0.1,0.8-0.2,1.3-0.2
			c0.5,0,0.9,0.1,1.3,0.2s0.7,0.4,1,0.6l-0.9,3.7c-0.6-0.4-1.3-0.7-2.1-0.7c-0.6,0-1.1,0.1-1.7,0.4c-0.5,0.3-1,0.7-1.3,1.3v9.7h-4.1
			V12.3h3.6L60.3,14.5z"/>
		<path class="st3" d="M70.6,5.3c0.4,0,0.7,0.1,0.9,0.3s0.3,0.5,0.3,0.8c0,0.3-0.1,0.6-0.3,0.8S71,7.6,70.6,7.6s-0.7-0.1-0.9-0.3
			s-0.3-0.5-0.3-0.8c0-0.3,0.1-0.6,0.3-0.8C69.9,5.4,70.2,5.3,70.6,5.3z"/>
		<rect x="68.6" y="12.3" class="st2" width="4.1" height="14.8"/>
		<path class="st2" d="M90.9,27.1H87l-0.5-2c-0.5,0.6-1.1,1.2-1.8,1.7s-1.7,0.7-2.8,0.7c-1,0-1.9-0.2-2.7-0.5
			c-0.8-0.4-1.6-0.9-2.2-1.6c-0.6-0.7-1.1-1.6-1.5-2.6S75,20.6,75,19.4c0-1.1,0.2-2.1,0.4-3.1s0.7-1.8,1.3-2.6s1.3-1.3,2.1-1.8
			c0.8-0.4,1.8-0.6,2.9-0.6c1.2,0,2.2,0.2,2.9,0.8c0.8,0.5,1.3,1.1,1.8,1.6V0.8h4.3L90.9,27.1L90.9,27.1z M86.6,16.6
			c-0.4-0.6-0.9-1.1-1.4-1.4s-1.2-0.6-2.1-0.6c-1,0-1.9,0.4-2.6,1.2c-0.7,0.8-1.1,2-1.1,3.5c0,0.9,0.1,1.6,0.3,2.3
			c0.2,0.6,0.5,1.1,0.8,1.5c0.3,0.4,0.7,0.7,1.2,0.9c0.4,0.2,0.9,0.3,1.4,0.3c1,0,1.9-0.4,2.6-1.2s1-1.9,1-3.2L86.6,16.6L86.6,16.6z
			"/>
		<path class="st2" d="M92.7,19.6c0-1.1,0.2-2.1,0.5-3.1s0.8-1.8,1.4-2.5c0.6-0.7,1.4-1.3,2.4-1.7s2.1-0.6,3.4-0.6s2.4,0.2,3.4,0.6
			c1,0.4,1.8,1,2.4,1.7c0.6,0.7,1.1,1.5,1.4,2.5s0.5,2,0.5,3.1c0,1.1-0.2,2.1-0.5,3.1s-0.8,1.8-1.4,2.5c-0.6,0.7-1.4,1.3-2.4,1.7
			c-1,0.4-2.1,0.6-3.4,0.6s-2.4-0.2-3.4-0.6s-1.8-1-2.4-1.7c-0.6-0.7-1.1-1.5-1.4-2.5S92.7,20.7,92.7,19.6z M96.8,19.6
			c0,1.5,0.3,2.7,0.9,3.5c0.6,0.9,1.5,1.3,2.7,1.3c1.2,0,2.2-0.4,2.7-1.3c0.6-0.9,0.9-2,0.9-3.5s-0.3-2.7-0.9-3.5
			c-0.6-0.9-1.5-1.3-2.7-1.3c-1.2,0-2.2,0.4-2.7,1.3C97.1,16.9,96.8,18.1,96.8,19.6z"/>
		<path class="st2" d="M114.1,14.5c0.2-0.3,0.4-0.7,0.6-1c0.2-0.3,0.5-0.6,0.8-0.8c0.3-0.2,0.6-0.4,1-0.6c0.4-0.1,0.8-0.2,1.3-0.2
			c0.4,0,0.9,0.1,1.3,0.2s0.7,0.4,1,0.6l-0.9,3.7c-0.6-0.4-1.3-0.7-2.1-0.7c-0.6,0-1.1,0.1-1.7,0.4c-0.5,0.3-1,0.7-1.3,1.3v9.7H110
			V12.3h3.6L114.1,14.5z"/>
		<path class="st2" d="M125.8,27.1h-4.1V12.3h3.6l0.4,2c0.2-0.2,0.5-0.5,0.9-0.8c0.3-0.3,0.7-0.6,1.2-0.8c0.4-0.2,0.9-0.4,1.4-0.6
			c0.5-0.1,1.1-0.2,1.6-0.2c1.5,0,2.7,0.5,3.6,1.6s1.4,2.6,1.4,4.5v9.1h-4.1v-9c0-1-0.2-1.7-0.5-2.2c-0.3-0.5-0.9-0.8-1.7-0.8
			c-0.7,0-1.4,0.2-2.1,0.6c-0.7,0.4-1.2,0.9-1.6,1.4V27.1z"/>
		<path class="st2" d="M7.6,19.5C7.6,19.5,7.6,19.5,7.6,19.5C7.6,19.5,7.6,19.5,7.6,19.5z"/>
		<path class="st2" d="M8.5,19.7c-0.3-0.1-0.6-0.1-0.9-0.2C7.9,19.5,8.2,19.6,8.5,19.7z"/>
		<path class="st2" d="M13.7,22.8C13.7,22.7,13.7,22.7,13.7,22.8c1.2-0.3,2.2-0.8,3.1-1.5c0.9-0.7,1.7-1.5,2.3-2.4
			c0.6-0.9,1.1-2,1.4-3.2c0.3-1.2,0.5-2.4,0.5-3.8c0-1.6-0.2-3-0.6-4.4S19.2,5,18.3,4s-1.9-1.8-3.1-2.3s-2.7-0.8-4.4-0.8
			S7.7,1.1,6.5,1.7C5.2,2.2,4.2,3,3.3,4S1.9,6.2,1.4,7.6C1,8.9,0.8,10.4,0.8,11.9c0,0.1,0,0.1,0,0.2c0,1.4,0.2,2.8,0.6,4
			c0.4,1.3,0.9,2.4,1.7,3.4c0.7,1,1.7,1.8,2.8,2.4c0.6,0.3,1.2,0.6,1.8,0.7l0,0c0.3,0.1,0.6,0.1,0.9,0.2c0.8,0.1,1.6,0.2,2.5,0.2
			C11.9,23.1,12.8,23,13.7,22.8z M6.4,17.7c-1-1.4-1.5-3.3-1.5-5.7c0-2.4,0.5-4.3,1.5-5.7s2.5-2,4.4-2s3.4,0.7,4.4,2
			s1.5,3.3,1.5,5.7s-0.5,4.3-1.5,5.7s-2.5,2-4.4,2S7.4,19,6.4,17.7z"/>
		<rect x="5" y="24.7" class="st2" width="11.7" height="3.1"/>
		<path class="st4" d="M11.6,17c0-0.6,0.4-1,0.5-1.1c0.3-0.3,0.6-0.8,0.6-1.3c0-1-0.8-1.8-1.8-1.8c-1,0-1.8,0.8-1.8,1.8
			c0,0.5,0.2,1,0.6,1.3c0.1,0.1,0.5,0.5,0.5,1.1c0,1-1.6,0.8-1.6,7.7h2.3h2.3C13.2,17.8,11.6,17.9,11.6,17z"/>
	</g>
</g>
</svg>
